<?xml version="1.0" standalone="no"?>
<!DOCTYPE svg PUBLIC "-//W3C//DTD SVG 20010904//EN"
 "http://www.w3.org/TR/2001/REC-SVG-20010904/DTD/svg10.dtd">
<svg version="1.0" xmlns="http://www.w3.org/2000/svg"
 width="700.000000pt" height="700.000000pt" viewBox="0 0 700.000000 700.000000"
 preserveAspectRatio="xMidYMid meet">
<metadata>
Created by potrace 1.14, written by Peter Selinger 2001-2017
</metadata>
<g transform="translate(0.000000,700.000000) scale(0.100000,-0.100000)"
fill="#000000" stroke="none">
<path d="M1969 6594 c-281 -48 -480 -245 -573 -566 -22 -78 -28 -108 -42 -210
-3 -24 -7 -56 -10 -73 -5 -35 -4 -298 1 -370 12 -155 38 -330 76 -510 17 -77
32 -153 35 -170 l5 -30 -223 -73 c-123 -40 -236 -79 -253 -86 -16 -8 -82 -39
-147 -69 -478 -224 -778 -527 -824 -833 -8 -55 -9 -166 -1 -204 25 -124 68
-222 143 -327 155 -217 455 -423 847 -582 145 -58 356 -130 412 -140 36 -6 40
-9 39 -36 0 -17 -13 -86 -28 -155 -15 -69 -29 -141 -32 -160 -3 -19 -7 -41 -9
-48 -3 -7 -7 -40 -11 -75 -3 -34 -8 -65 -10 -68 -8 -14 -18 -213 -18 -354 -1
-155 8 -279 24 -349 5 -23 11 -54 14 -71 16 -89 87 -259 144 -342 179 -260
480 -354 845 -262 251 63 543 229 852 483 61 49 126 105 145 122 19 18 55 51
79 73 44 41 45 41 65 22 12 -10 53 -48 91 -84 39 -35 104 -93 145 -127 585
-488 1089 -650 1460 -469 149 73 278 224 350 411 63 162 85 314 85 573 -1 190
-9 287 -35 445 -5 30 -12 71 -15 90 -6 35 -31 167 -39 205 -2 11 -11 46 -19
78 l-16 59 34 14 c19 8 38 14 43 14 17 0 330 108 417 144 306 127 613 329 756
497 152 179 211 327 206 518 -4 120 -29 220 -78 302 -16 27 -29 52 -29 55 0
25 -156 198 -250 277 -211 177 -590 363 -970 477 -58 18 -111 34 -118 36 -7 2
-11 7 -9 11 6 10 55 227 62 278 4 22 8 47 10 55 10 36 29 192 43 351 9 103 8
320 -2 404 -4 33 -9 78 -12 100 -22 184 -102 384 -209 518 -76 96 -239 200
-345 221 -294 58 -572 -13 -945 -242 -82 -51 -322 -225 -370 -269 -11 -10 -45
-39 -75 -65 -30 -25 -86 -75 -125 -111 l-70 -65 -85 81 c-247 237 -525 437
-770 554 -248 118 -466 160 -661 127z m285 -320 c94 -20 151 -40 271 -99 217
-106 430 -262 683 -504 55 -52 62 -62 53 -80 -6 -11 -17 -24 -24 -28 -7 -4
-37 -37 -67 -73 -30 -36 -58 -67 -61 -70 -7 -6 -146 -174 -174 -211 -11 -14
-69 -91 -129 -170 -59 -79 -109 -145 -111 -147 -4 -5 -42 -10 -121 -17 -43 -3
-90 -8 -104 -11 -14 -2 -61 -9 -105 -15 -44 -5 -96 -12 -115 -15 -55 -7 -147
-23 -255 -44 -132 -27 -133 -27 -181 -38 l-42 -9 -20 91 c-20 87 -46 223 -57
296 -2 19 -7 51 -10 70 -21 140 -28 477 -13 590 36 264 161 448 332 491 46 11
180 8 250 -7z m2770 -4 c174 -67 272 -244 304 -550 11 -105 4 -382 -13 -482
-37 -226 -56 -324 -90 -474 -5 -21 -5 -21 -172 12 -93 18 -193 35 -223 39 -30
4 -57 8 -60 10 -3 2 -34 6 -70 10 -36 4 -67 8 -70 10 -3 2 -30 6 -60 9 -30 4
-71 8 -90 11 -19 3 -62 7 -95 11 -33 3 -64 7 -70 7 -5 1 -30 29 -54 62 -45 62
-124 168 -163 220 -71 92 -250 303 -346 405 l-32 35 67 65 c153 148 382 330
533 423 119 73 277 144 380 170 121 31 252 34 324 7z m-1406 -1039 c21 -24 64
-76 97 -116 101 -120 146 -180 143 -189 -3 -7 -738 -15 -738 -8 0 5 41 64 55
78 5 6 24 29 40 50 51 65 140 170 211 249 l67 76 45 -48 c24 -26 60 -68 80
-92z m292 -635 c85 -4 166 -8 180 -9 20 -2 41 -25 103 -117 67 -99 232 -368
294 -480 11 -19 43 -75 70 -125 28 -49 82 -153 121 -229 l70 -140 -44 -88
c-135 -279 -324 -605 -536 -923 -48 -73 -56 -80 -88 -82 -462 -25 -1191 -19
-1216 10 -28 32 -275 429 -350 562 -15 28 -52 93 -81 145 -29 52 -85 158 -124
236 l-70 141 84 164 c143 278 262 483 447 770 52 79 95 145 96 147 4 7 58 11
217 17 94 4 173 7 174 8 4 5 519 -1 653 -7z m-1533 -203 c-138 -226 -193 -321
-249 -429 l-53 -103 -23 52 c-62 139 -168 433 -178 494 -5 30 -4 31 38 38 24
4 52 9 63 12 11 2 29 6 40 7 11 2 88 15 170 29 83 14 175 29 205 32 30 4 57 9
59 11 2 2 6 2 9 0 2 -3 -34 -67 -81 -143z m2298 130 c22 -2 125 -20 228 -39
103 -19 191 -34 195 -34 33 -1 31 -20 -12 -146 -42 -121 -113 -310 -151 -398
l-17 -39 -37 69 c-21 38 -59 110 -86 159 -64 120 -146 261 -212 364 l-54 84
53 -8 c29 -4 71 -9 93 -12z m-3096 -236 c37 -116 92 -272 148 -412 53 -135 70
-174 134 -315 l30 -66 -36 -79 c-20 -44 -46 -100 -56 -125 -11 -25 -24 -54
-29 -65 -28 -60 -100 -252 -155 -410 -50 -143 -67 -179 -80 -177 -9 2 -77 23
-151 48 -487 160 -841 374 -983 594 -123 190 -90 364 108 561 129 129 323 248
586 359 117 50 446 161 457 154 4 -3 16 -33 27 -67z m4061 6 c58 -19 119 -41
135 -48 17 -7 62 -25 100 -40 39 -16 119 -53 179 -82 305 -152 493 -311 570
-483 112 -247 -68 -512 -504 -743 -171 -90 -435 -195 -621 -247 l-66 -18 -13
41 c-46 153 -145 412 -256 673 l-64 150 46 105 c25 57 66 154 91 214 24 61 50
124 58 140 20 47 71 190 106 301 l32 102 51 -15 c28 -8 98 -31 156 -50z m-655
-1331 c58 -147 148 -403 143 -407 -2 -2 -19 -5 -38 -8 -19 -3 -93 -17 -165
-30 -130 -25 -146 -28 -307 -51 l-88 -12 19 30 c146 239 276 460 316 538 27
54 52 95 56 90 4 -4 33 -71 64 -150z m-2852 46 c55 -104 217 -381 287 -492 22
-33 37 -62 35 -64 -2 -2 -52 4 -112 12 -107 15 -122 18 -218 36 -27 5 -67 12
-88 15 -22 3 -69 12 -107 21 l-67 15 20 57 c84 241 184 502 192 502 2 0 28
-46 58 -102z m-148 -803 c11 -1 49 -8 85 -14 64 -12 147 -25 225 -36 22 -3 69
-10 105 -15 75 -11 133 -18 210 -27 30 -3 60 -6 67 -7 6 -1 59 -65 116 -143
148 -199 318 -405 465 -561 6 -7 12 -15 12 -17 0 -7 -155 -153 -235 -221 -344
-291 -641 -445 -890 -461 -189 -12 -313 61 -396 233 -62 129 -80 225 -84 459
-4 227 10 371 60 616 32 159 46 222 49 228 3 4 47 -1 98 -11 51 -11 102 -21
113 -23z m3234 22 c5 -13 12 -37 15 -53 3 -16 10 -49 15 -74 9 -45 18 -92 26
-140 2 -14 6 -38 8 -55 9 -49 26 -167 32 -210 14 -108 17 -332 6 -437 -30
-279 -115 -444 -269 -520 -63 -31 -72 -33 -177 -33 -60 0 -132 6 -160 14 -237
63 -465 194 -733 419 -110 92 -262 235 -262 247 0 5 22 33 48 60 107 113 311
364 448 551 82 111 80 110 184 119 69 6 89 8 185 20 33 4 71 9 85 10 21 2 196
32 299 50 78 14 214 45 219 49 11 12 23 5 31 -17z m-1349 -156 c0 -11 -200
-258 -281 -346 -20 -22 -49 -55 -65 -74 l-28 -33 -45 48 c-64 69 -277 324
-332 399 -5 7 121 10 372 10 208 0 379 -2 379 -4z"/>
<path d="M3425 4128 c-272 -31 -493 -232 -556 -506 -16 -70 -14 -199 5 -272
94 -369 464 -576 821 -458 258 85 435 330 435 603 0 377 -332 674 -705 633z"/>
</g>
</svg>
