<?xml version="1.0" standalone="no"?>
<!DOCTYPE svg PUBLIC "-//W3C//DTD SVG 20010904//EN"
 "http://www.w3.org/TR/2001/REC-SVG-20010904/DTD/svg10.dtd">
<svg version="1.0" xmlns="http://www.w3.org/2000/svg"
 width="300.000000pt" height="300.000000pt" viewBox="0 0 300.000000 300.000000"
 preserveAspectRatio="xMidYMid meet">
<metadata>
Created by potrace 1.14, written by Peter Selinger 2001-2017
</metadata>
<g transform="translate(0.000000,300.000000) scale(0.100000,-0.100000)"
fill="#000000" stroke="none">
<path d="M1101 2684 c-63 -17 -107 -42 -139 -79 -22 -26 -26 -26 -114 -21 -80
4 -93 7 -118 31 -35 33 -119 65 -173 65 -62 0 -140 -41 -208 -110 -47 -46 -67
-60 -90 -60 -48 0 -120 -41 -188 -107 l-64 -62 7 -98 c10 -138 11 -145 25
-171 8 -15 18 -21 28 -18 8 3 20 6 27 6 34 0 99 135 108 225 2 17 8 28 13 25
13 -7 9 -35 -23 -160 -43 -169 -33 -372 25 -485 9 -16 45 -60 80 -96 35 -37
67 -79 71 -94 5 -18 0 -49 -15 -94 -12 -36 -25 -91 -28 -121 -6 -51 -5 -54 9
-36 9 11 16 15 16 9 0 -7 -6 -18 -13 -25 -23 -23 0 -174 46 -293 10 -27 23
-66 29 -85 30 -103 187 -274 365 -399 29 -21 48 -25 138 -29 124 -5 159 1 150
27 -4 14 1 20 22 24 15 3 35 2 43 -2 8 -4 29 -5 45 -2 24 5 31 12 33 36 2 20
0 26 -6 17 -7 -11 -10 -10 -16 3 -9 23 -9 23 16 27 30 4 35 34 8 41 -19 5 -21
10 -15 50 8 51 -11 117 -32 117 -30 0 -65 -47 -70 -94 -5 -39 -9 -46 -28 -46
-13 0 -27 10 -35 25 -28 52 47 169 116 180 19 3 50 7 69 10 25 4 35 2 35 -7 0
-8 9 -21 20 -31 19 -16 21 -15 43 21 12 20 28 48 35 62 38 75 98 144 118 136
7 -3 20 4 30 15 9 10 13 19 9 19 -5 0 1 10 13 22 27 30 39 78 21 79 -30 3 -65
-3 -76 -13 -13 -11 -18 -3 -43 77 -7 22 -26 76 -43 120 -17 44 -32 105 -35
135 -3 49 -1 58 21 78 16 15 27 20 32 13 15 -25 54 -10 94 35 23 26 41 53 41
60 0 7 5 14 11 16 6 2 14 27 17 56 2 29 9 55 13 58 5 3 9 20 9 37 0 18 5 39
10 47 7 11 10 6 10 -21 0 -88 57 -189 106 -189 8 0 14 -10 14 -22 0 -13 4 -30
10 -38 6 -9 5 -17 -2 -21 -7 -4 -3 -11 10 -18 13 -7 19 -17 16 -26 -4 -8 -1
-15 5 -15 15 0 14 -30 -4 -64 -18 -33 -18 -36 -6 -36 5 0 13 14 16 31 10 45
27 15 19 -33 -5 -34 -3 -39 19 -47 13 -5 38 -27 55 -49 26 -32 29 -42 19 -54
-27 -34 -46 -35 -125 -9 -42 14 -78 29 -80 33 -2 5 -11 8 -19 8 -24 0 -10 -74
23 -122 45 -65 213 -176 292 -193 17 -3 32 -11 32 -17 0 -5 10 -8 23 -7 22 3
84 -9 101 -19 5 -3 27 -7 49 -9 22 -2 47 -9 55 -16 8 -6 17 -11 19 -9 23 17
163 -122 163 -163 0 -3 -8 -5 -17 -5 -15 0 -16 -2 -3 -10 12 -8 13 -11 1 -19
-9 -6 -10 -11 -2 -15 13 -9 15 -26 2 -26 -5 0 -16 7 -25 15 -13 14 -14 11 -9
-19 8 -48 -4 -89 -23 -82 -8 3 -13 2 -9 -3 3 -5 1 -21 -5 -36 -7 -17 -7 -24 0
-20 6 3 10 13 10 20 0 8 6 12 14 9 19 -7 141 127 124 138 -10 6 -10 8 0 8 7 0
11 4 7 9 -3 6 4 15 15 21 11 6 20 7 20 3 0 -4 7 2 15 13 11 17 12 29 5 55 -12
39 -4 87 17 111 20 23 41 12 51 -26 l9 -31 30 60 c57 114 101 239 109 310 4
38 24 124 46 190 94 286 91 403 -13 550 -27 39 -69 110 -94 158 -45 86 -45 88
-28 112 24 33 31 31 49 -15 23 -56 93 -115 154 -130 80 -19 85 -7 43 115 -48
142 -72 166 -217 222 -41 16 -63 20 -70 13 -5 -5 -19 -10 -29 -10 -11 0 -36
-9 -56 -21 l-38 -21 -38 26 c-27 19 -51 26 -84 26 -40 0 -49 -4 -63 -27 -9
-16 -19 -49 -23 -75 -9 -59 -30 -63 -64 -13 -16 24 -31 35 -48 35 -22 0 -24
-3 -18 -27 4 -16 3 -25 -1 -20 -4 4 -16 -1 -27 -10 -18 -16 -20 -16 -14 -2 4
13 1 16 -14 12 -10 -3 -19 -1 -19 5 0 5 -27 20 -60 32 -52 20 -103 25 -175 18
-9 -1 -42 -25 -74 -54 -60 -55 -95 -118 -148 -263 -23 -62 -24 -64 -21 -25 3
37 0 43 -23 51 -21 8 -28 19 -33 56 -4 25 -27 106 -52 179 -49 147 -56 190
-18 111 46 -95 177 -186 205 -142 9 14 8 37 -2 54 -12 20 -28 81 -35 130 -8
63 -35 117 -73 144 -76 54 -184 78 -228 51 -17 -11 -25 -10 -49 7 -27 19 -115
54 -132 52 -4 0 -31 -7 -61 -15z m145 -203 c44 -20 104 -85 104 -113 0 -10 4
-18 9 -18 6 0 8 -10 6 -22 -3 -11 3 -36 12 -55 17 -37 13 -98 -9 -119 -11 -11
-13 -2 -14 49 0 47 -7 74 -26 112 -75 144 -216 177 -319 74 -44 -44 -47 -43
-20 9 20 38 51 71 86 90 31 18 125 14 171 -7z m-568 -38 c51 -40 83 -108 88
-185 3 -57 3 -59 -6 -21 -36 166 -177 240 -300 157 -66 -44 -101 -112 -109
-209 l-7 -80 -10 45 c-19 88 13 198 79 269 47 50 81 62 160 58 57 -4 74 -9
105 -34z m408 -114 c10 -17 -13 -36 -27 -22 -12 12 -4 33 11 33 5 0 12 -5 16
-11z m-626 -49 c0 -11 -4 -20 -9 -20 -14 0 -23 18 -16 30 10 17 25 11 25 -10z
m1977 -12 c75 -28 169 -120 200 -195 18 -43 19 -53 7 -53 -7 0 -14 8 -14 18 0
34 -47 118 -85 151 -71 62 -142 77 -188 41 -34 -27 -39 -25 -34 9 10 59 24 63
114 29z m-415 -87 c82 -36 148 -126 147 -201 -1 -35 -1 -35 -9 -7 -48 158
-270 186 -365 46 -26 -38 -30 -53 -30 -110 0 -55 4 -72 28 -108 16 -24 27 -44
25 -46 -2 -1 -12 -7 -23 -13 -71 -36 -133 159 -91 286 43 130 199 205 318 153z
m396 -9 c2 -7 -3 -12 -12 -12 -9 0 -16 7 -16 16 0 17 22 14 28 -4z m-544 -190
c2 -4 1 -14 -4 -21 -11 -19 -41 -6 -34 14 6 16 29 20 38 7z m687 -435 c-8 -8
-11 -3 -11 19 1 25 2 27 11 11 8 -14 8 -22 0 -30z m-593 -214 l-4 -28 -8 28
c-5 15 -5 39 0 55 l8 27 4 -27 c2 -16 2 -40 0 -55z m-1044 26 l-29 -31 35 7
c49 10 27 -8 -34 -29 -60 -20 -61 -20 -47 -2 10 11 -2 11 -59 -4 -68 -17 -71
-17 -65 0 5 16 1 17 -37 10 -24 -5 -44 -7 -46 -5 -4 4 107 55 119 55 5 0 9 -4
9 -10 0 -16 31 -12 106 14 38 14 71 25 73 25 3 1 -8 -13 -25 -30z m-484 -15
c0 -8 -9 -23 -19 -33 -19 -19 -19 -18 -25 11 -3 17 -4 34 -1 38 8 13 45 -1 45
-16z m-89 -51 c-8 -15 -10 -15 -11 -2 0 17 10 32 18 25 2 -3 -1 -13 -7 -23z
m271 -108 c-20 -55 -37 -59 -27 -8 8 46 12 53 30 53 12 0 11 -8 -3 -45z m1942
-96 c-4 -13 -7 -33 -5 -45 3 -30 -24 -51 -44 -34 -12 10 -27 11 -68 2 -29 -6
-75 -14 -104 -17 -29 -4 -57 -13 -64 -21 -6 -8 -22 -14 -36 -14 -31 0 -42 29
-17 47 19 14 19 15 -1 29 -20 15 -20 15 -1 30 17 12 24 12 53 -6 40 -23 76
-25 157 -6 40 10 68 24 89 45 34 33 54 28 41 -10z m-1064 -63 c0 -2 -8 -10
-17 -17 -16 -13 -17 -12 -4 4 13 16 21 21 21 13z m-450 -556 c0 -5 -2 -10 -4
-10 -3 0 -8 5 -11 10 -3 6 -1 10 4 10 6 0 11 -4 11 -10z"/>
<path d="M1367 825 c-28 -27 -35 -45 -16 -45 6 0 9 -6 6 -14 -3 -8 -9 -31 -13
-50 -6 -34 -5 -36 20 -36 14 0 26 -4 26 -10 0 -18 49 -11 70 10 11 11 20 15
20 10 0 -6 10 -2 22 10 12 11 25 20 30 20 4 0 8 8 8 18 0 15 8 18 35 18 24 -1
34 -5 30 -13 -2 -7 0 -13 5 -13 6 0 10 6 10 14 0 15 -47 87 -64 98 -6 4 -45 8
-86 8 -67 0 -78 -3 -103 -25z"/>
<path d="M2160 735 c0 -8 -4 -15 -10 -15 -5 0 -10 -6 -10 -14 0 -8 -5 -16 -12
-18 -10 -4 -10 -16 0 -57 7 -29 12 -74 12 -99 0 -52 16 -118 30 -127 10 -6 90
43 90 56 0 4 -4 10 -9 14 -6 3 -22 30 -36 60 -26 52 -27 57 -15 124 6 39 9 75
5 81 -10 16 -45 12 -45 -5z"/>
<path d="M1640 623 c0 -5 6 -15 12 -21 10 -10 10 -15 1 -20 -6 -4 -10 -20 -9
-35 2 -15 0 -27 -4 -27 -5 0 -6 -9 -3 -20 3 -11 0 -20 -6 -20 -6 0 -11 -9 -11
-19 0 -11 -5 -32 -11 -48 -19 -46 -6 -114 25 -136 15 -10 -21 -37 -50 -37 -12
0 -25 -7 -28 -16 -5 -13 -2 -15 16 -9 13 5 43 8 68 7 25 0 71 4 103 10 53 10
57 13 57 38 0 15 -16 58 -36 96 -20 37 -51 111 -69 163 -17 52 -37 97 -43 99
-7 2 -12 0 -12 -5z"/>
<path d="M1259 578 c0 -7 -2 -20 -3 -28 -1 -8 1 -28 5 -45 5 -24 7 -18 8 28 0
31 -1 57 -4 57 -3 0 -5 -6 -6 -12z"/>
<path d="M1336 503 c-18 -18 -3 -70 29 -103 37 -36 41 -36 26 2 -6 13 -12 39
-16 60 -5 34 -25 54 -39 41z"/>
</g>
</svg>
