<?xml version="1.0" ?><svg viewBox="0 0 512 512" fill="currentColor" xmlns="http://www.w3.org/2000/svg"><title/><g id="Yorkshire_Terrier"><path d="M197.4734,233.8973a14.4171,14.4171,0,0,0-14.4,14.4v10.1391a14.4,14.4,0,0,0,28.8,0V248.2973A14.417,14.417,0,0,0,197.4734,233.8973Z"/><path d="M300.1252,248.2973v10.1391a14.4,14.4,0,0,0,28.8,0V248.2973a14.4,14.4,0,0,0-28.8,0Z"/><path d="M422.3664,180.46a143.4484,143.4484,0,0,0-29.7295-15.3955,194.46,194.46,0,0,0-8.633-82.578,19.7639,19.7639,0,0,0-11.1078-11.65,17.6737,17.6737,0,0,0-14.5625.0516,165.4808,165.4808,0,0,0-68.1371,62.175H221.8014a165.4444,165.4444,0,0,0-68.1366-62.175,17.6623,17.6623,0,0,0-14.5625-.0516,19.7642,19.7642,0,0,0-11.1078,11.65,194.7023,194.7023,0,0,0-8.6453,82.5838,143.48,143.48,0,0,0-29.7156,15.39,6.4,6.4,0,0,0,1.125,10.9906l19.325,8.8015c-11.2531,21.875-10.1266,52.0422-10.0672,53.4454a6.4,6.4,0,0,0,3.725,5.5453,6.4679,6.4679,0,0,0,6.6328-.7922,240.0329,240.0329,0,0,1,23.2738-16.3248l10.7778,58.7092a113.0167,113.0167,0,0,0,5.5721,19.7025c-12.0276,21.5627-12.4864,51.19-1.23,88.38a6.3991,6.3991,0,0,0,9.8187,3.3734l17.1094-12.0937a167.6377,167.6377,0,0,0,30.45,40.6781A6.4,6.4,0,0,0,217.02,436.63a264.93,264.93,0,0,1,7.2135-47.2424,110.9868,110.9868,0,0,0,30.1053,4.5221l1.6609.0078,1.6719-.0078a111.296,111.296,0,0,0,30.085-4.4967,265.2965,265.2965,0,0,1,7.2228,47.2185,6.4008,6.4008,0,0,0,10.8734,4.2438,167.6377,167.6377,0,0,0,30.45-40.6781l17.1094,12.0937a6.3992,6.3992,0,0,0,9.8188-3.3734c11.256-37.19,10.7976-66.8164-1.2291-88.3789a112.4963,112.4963,0,0,0,5.5713-19.7039L378.35,242.1266A240.05,240.05,0,0,1,401.6242,258.45a6.4679,6.4679,0,0,0,6.6328.7922,6.4,6.4,0,0,0,3.725-5.5453c.0594-1.4032,1.1875-31.57-10.0672-53.4454l19.3266-8.8015a6.4,6.4,0,0,0,1.125-10.9906ZM113.1586,240.3563c.8531-11.489,3.4812-28.1968,11.3234-39.2531a6.4011,6.4011,0,0,0-2.5672-9.5281l-15.0437-6.8516c22.92-12.8656,81.4531-36.8,125.5281,22.2156a3.6023,3.6023,0,0,1-.0312,4.3844,3.4139,3.4139,0,0,1-3.9828,1.3438C204.2148,204.55,165.1414,203.3048,113.1586,240.3563ZM257.5477,381.11l-1.5485.0078-1.5375-.0078a98.7126,98.7126,0,0,1-26.6683-3.969c4.1679-12.4812,12.1354-33.12,28.2058-33.1357,16.0556-.0161,24.0349,20.6992,28.191,33.1437A98.76,98.76,0,0,1,257.5477,381.11Zm95.8546,15.5-15.88-11.225a6.4074,6.4074,0,0,0-9.6063,2.775c-.0766.1859-6.6516,15.7375-21.3687,33.164a240.8159,240.8159,0,0,0-8.43-43.4326c-4.2229-13.9773-10.2727-29.1337-21.6627-38.861-10.3435-8.8335-25.1-10.4359-36.7441-3.0869-12.4929,7.8851-19.3541,22.7734-23.9889,36.2355-5.4525,15.8372-8.4517,32.5264-10.2714,49.145-14.7172-17.425-21.2922-32.9765-21.3656-33.1562a6.4009,6.4009,0,0,0-4.136-3.7032,6.4717,6.4717,0,0,0-5.4734.92l-15.88,11.225c-5.3506-20.6-8.5606-44.1735-.0918-64.4242,7.7826-18.61,25.2222-29.3511,44.2007-34.0528a132.9723,132.9723,0,0,1,31.5729-3.591l13.0557,16.6961.0016.0015a11.11,11.11,0,0,0,17.33-.0015l13.0727-16.7182c20.035.044,49.8018,3.81,66.9586,23.4494C359.61,335.0423,362.5289,361.472,353.4023,396.61Zm1.58-98.0875c-.5843,3.183-1.3265,6.3029-2.2009,9.3619-19.6959-20.9991-50.393-25.7881-72.1655-26.185a10.9874,10.9874,0,0,0-10.1242-6.7676H241.507a10.9242,10.9242,0,0,0-9.8875,6.1813c-.0935.1918-.155.3912-.2367.5861-21.7742.3969-52.4746,5.1867-72.1715,26.1918-.8722-3.0615-1.6105-6.1846-2.1949-9.3685L145.442,235.4743c35.03-18.1016,61.46-16.5207,78.8682-10.6727a16.497,16.497,0,0,0,18.3453-25.5187v-.0016c-35.2434-47.1884-79.1682-47.3074-110.9075-38.3441a181.7307,181.7307,0,0,1,8.3965-74.42,6.92,6.92,0,0,1,3.925-3.8844,5.1539,5.1539,0,0,1,3.9891-.2391A152.1,152.1,0,0,1,207.03,133.771a46.8281,46.8281,0,0,0-15.4151,5.5494,6.3995,6.3995,0,0,0,6.3938,11.0875,34.0578,34.0578,0,0,1,16.9875-4.5453h82.0062a34.0578,34.0578,0,0,1,16.9875,4.5453,6.3995,6.3995,0,1,0,6.3938-11.0875,46.825,46.825,0,0,0-15.4139-5.5492,152.1023,152.1023,0,0,1,58.97-51.3774,5.1468,5.1468,0,0,1,3.9891.2391,6.92,6.92,0,0,1,3.925,3.8844,181.6269,181.6269,0,0,1,8.3889,74.4168c-31.7395-8.9612-75.66-8.8381-110.8983,38.3472a16.4967,16.4967,0,0,0,18.3438,25.52c17.4051-5.8447,43.8351-7.4261,78.8678,10.6749Zm35.1016-106.9469a6.4011,6.4011,0,0,0-2.5672,9.5281c7.8438,11.0578,10.4719,27.7641,11.3234,39.2531-32.7212-23.3228-74.9454-41.2172-115.2265-27.689a3.4018,3.4018,0,0,1-3.9828-1.3438,3.6031,3.6031,0,0,1-.03-4.3828c44.0765-59.0219,102.614-35.0812,125.5281-22.2172Z"/></g></svg>
