<?xml version="1.0" ?><!DOCTYPE svg  PUBLIC '-//W3C//DTD SVG 1.1//EN'  'http://www.w3.org/Graphics/SVG/1.1/DTD/svg11.dtd'><svg enable-background="new 0 0 64 64" height="64px" id="Layer_1" version="1.1" viewBox="0 0 64 64" width="64px" xml:space="preserve" xmlns="http://www.w3.org/2000/svg" xmlns:xlink="http://www.w3.org/1999/xlink"><path d="M61.374,10.965c-1.626-1.639-3.749-2.472-5.888-2.523c-0.023-0.001-0.033-0.008-0.058-0.012  c-1.557-0.167-1.904-1.917-1.904-1.917l-0.019,0.051c-0.3-1.441-0.969-2.819-2.087-3.944c-3.099-3.124-8.146-3.147-11.27-0.047  c-2.829,2.805-3.088,7.19-0.819,10.318l-0.009,0.037c0,0,1.304,1.433-0.035,2.759L15.388,39.388  c-1.181,1.172-2.205,0.036-2.205,0.036l-0.009,0.046c-3.12-2.593-7.735-2.472-10.676,0.442c-3.123,3.098-3.144,8.144-0.045,11.271  c0.147,0.148,0.309,0.271,0.465,0.404l0.008,0.032l0.038,0.008c0.935,0.779,2.003,1.305,3.125,1.595l-0.05,0.026  c0,0,1.938,0.388,2.199,2.218c0,0.006,0.003,0.006,0.004,0.012c0.074,2.077,0.895,4.137,2.473,5.727  c3.332,3.359,8.753,3.38,12.113,0.049c2.637-2.613,3.169-6.496,1.684-9.673l0.05,0.018c0,0-1.314-2.478,0.436-4.216l22.975-22.781  c0,0,1.124-1.19,3.157-0.142c0.138,0.07,0.245,0.112,0.339,0.136c3.192,1.611,7.172,1.142,9.854-1.517  C64.682,19.745,64.706,14.323,61.374,10.965z" fill="currentColor"/></svg>
